<svg width="14px" height="17px" viewBox="0 0 14 17" version="1.1" xmlns="http://www.w3.org/2000/svg" xmlns:xlink="http://www.w3.org/1999/xlink">
        <g id="Symbols" stroke="none" stroke-width="1" fill="none" fill-rule="evenodd">
            <g id="Desktop/App-Banner/Small/Light" transform="translate(-6.000000, -15.000000)" fill-rule="nonzero" fill="#1F2022">
                <g id="minimized-app-banner-light">
                    <g id="Apple" transform="translate(6.000000, 15.333333)">
                        <path d="M12.9082126,12.3171707 C12.6714976,12.8693659 12.3913043,13.3776585 12.0666667,13.8449756 C11.6241546,14.4820488 11.2618357,14.9230244 10.9826087,15.1679024 C10.5497585,15.5698537 10.0859903,15.7757073 9.58937198,15.7874146 C9.23285024,15.7874146 8.80289855,15.6849756 8.30241546,15.4771707 C7.80028986,15.2703415 7.33884058,15.1679024 6.91690821,15.1679024 C6.47439614,15.1679024 5.99980676,15.2703415 5.49217391,15.4771707 C4.98376812,15.6849756 4.5742029,15.7932683 4.2610628,15.804 C3.78483092,15.8244878 3.31014493,15.6127805 2.8363285,15.1679024 C2.53391304,14.901561 2.15565217,14.4449756 1.70251208,13.7981463 C1.2163285,13.1074146 0.816618357,12.306439 0.503478261,11.3932683 C0.168115942,10.4069268 0,9.45180488 0,8.52712195 C0,7.46790244 0.226666667,6.55434146 0.680676329,5.78878049 C1.03748792,5.17385366 1.51217391,4.68878049 2.10628019,4.33268293 C2.70038647,3.97658537 3.34231884,3.79512195 4.03362319,3.7835122 C4.41188406,3.7835122 4.90792271,3.90165854 5.52434783,4.13385366 C6.13903382,4.36682927 6.53371981,4.48497561 6.70676329,4.48497561 C6.83613527,4.48497561 7.27458937,4.34682927 8.0178744,4.07141463 C8.72077295,3.816 9.31400966,3.7102439 9.8,3.75190244 C11.1169082,3.85921951 12.1062802,4.38341463 12.7642512,5.32780488 C11.5864734,6.04839024 11.0038647,7.05765854 11.0154589,8.35239024 C11.026087,9.36087805 11.3884058,10.2000976 12.1004831,10.866439 C12.4231884,11.1757073 12.7835749,11.4147317 13.1845411,11.5844878 C13.0975845,11.839122 13.0057971,12.0830244 12.9082126,12.3171707 L12.9082126,12.3171707 Z M9.88792271,0.316195122 C9.88792271,1.1066439 9.60193237,1.84468293 9.03188406,2.52780488 C8.34396135,3.33990244 7.51188406,3.80917073 6.60956522,3.73512195 C6.59806763,3.64029268 6.59140097,3.5404878 6.59140097,3.43560976 C6.59140097,2.67678049 6.91855072,1.86468293 7.49951691,1.20068293 C7.78956522,0.864487805 8.15845411,0.584946341 8.6057971,0.36195122 C9.05217391,0.142282927 9.47439614,0.0208 9.87149758,0 C9.88309179,0.105668293 9.88792271,0.211346341 9.88792271,0.316185366 L9.88792271,0.316195122 Z" id="Shape"></path>
                    </g>
                </g>
            </g>
        </g>
    </svg>