
<svg width="14px" height="16px" viewBox="0 0 14 16" version="1.1" xmlns="http://www.w3.org/2000/svg" xmlns:xlink="http://www.w3.org/1999/xlink">
    <defs>
        <linearGradient x1="91.4895098%" y1="4.9604069%" x2="-38.3173161%" y2="71.909245%" id="linearGradient-1">
            <stop stop-color="#00A0FF" offset="0%"></stop>
            <stop stop-color="#00A1FF" offset="0.66%"></stop>
            <stop stop-color="#00BEFF" offset="26.01%"></stop>
            <stop stop-color="#00D2FF" offset="51.22%"></stop>
            <stop stop-color="#00DFFF" offset="76.04%"></stop>
            <stop stop-color="#00E3FF" offset="100%"></stop>
        </linearGradient>
        <linearGradient x1="107.585647%" y1="50.0163647%" x2="-130.492257%" y2="50.0163647%" id="linearGradient-2">
            <stop stop-color="#FFE000" offset="0%"></stop>
            <stop stop-color="#FFBD00" offset="40.87%"></stop>
            <stop stop-color="#FFA500" offset="77.54%"></stop>
            <stop stop-color="#FF9C00" offset="100%"></stop>
        </linearGradient>
        <linearGradient x1="86.237735%" y1="117.851014%" x2="-50.1313759%" y2="294.785269%" id="linearGradient-3">
            <stop stop-color="#FF3A44" offset="0%"></stop>
            <stop stop-color="#C31162" offset="100%"></stop>
        </linearGradient>
        <linearGradient x1="-18.8012883%" y1="-154.171052%" x2="42.0936259%" y2="-75.1365546%" id="linearGradient-4">
            <stop stop-color="#32A071" offset="0%"></stop>
            <stop stop-color="#2DA771" offset="6.85%"></stop>
            <stop stop-color="#15CF74" offset="47.62%"></stop>
            <stop stop-color="#06E775" offset="80.09%"></stop>
            <stop stop-color="#00F076" offset="100%"></stop>
        </linearGradient>
    </defs>
    <g id="Symbols" stroke="none" stroke-width="1" fill="none" fill-rule="evenodd">
        <g id="Desktop/App-Banner/Small/Light" transform="translate(-30.000000, -16.000000)" fill-rule="nonzero">
            <g id="minimized-app-banner-light">
                <g id="Google-play" transform="translate(29.666667, 16.000000)">
                    <g id="g48" transform="translate(0.448380, 0.056776)" fill="url(#linearGradient-1)">
                        <path d="M0.952786732,14.8390087 C0.786685188,14.6649233 0.690558336,14.3938879 0.690558336,14.0428865 L0.690558336,1.52289316 C0.690558336,1.17189176 0.786685188,0.900856408 0.952786732,0.726771038 L0.993782007,0.688557176 L8.00114674,7.70150848 L8.00114674,7.86710188 L0.993782007,14.8800532 L0.952786732,14.8390087 Z" id="path64"></path>
                    </g>
                    <g id="g66" transform="translate(8.223346, 5.010425)" fill="url(#linearGradient-2)">
                        <path d="M2.55937742,0.409029854 L0.226180827,2.74785973 L0.226180827,2.91345313 L2.56220468,5.252283 L2.61450899,5.22185345 L5.38098323,3.64588548 C6.17049568,3.19864176 6.17049568,2.46267109 5.38098323,2.01259672 L2.61450899,0.439459411 L2.55937742,0.409029854 L2.55937742,0.409029854 Z" id="path78"></path>
                    </g>
                    <g id="g80" transform="translate(1.155195, 0.056776)" fill="url(#linearGradient-3)">
                        <path d="M9.68265983,5.39310816 L7.29433166,7.78430518 L0.245971649,0.726771038 C0.508200045,0.450782036 0.93582317,0.417521823 1.42211195,0.693510825 L9.68265983,5.39310816" id="path88"></path>
                    </g>
                    <g id="g90" transform="translate(1.155195, 7.841081)" fill="url(#linearGradient-4)">
                        <path d="M9.68265983,2.39119702 L1.42211195,7.09079435 C0.93582317,7.3639527 0.508200045,7.33069249 0.245971649,7.05470348 L7.29433166,0 L9.68265983,2.39119702 Z" id="path104"></path>
                    </g>
                </g>
            </g>
        </g>
    </g>
</svg>