<svg xmlns="http://www.w3.org/2000/svg" xmlns:xlink="http://www.w3.org/1999/xlink" width="14" height="16" version="1.1" viewBox="0 0 14 16"><defs><linearGradient id="linearGradient-1" x1="91.49%" x2="-38.317%" y1="4.96%" y2="71.909%"><stop offset="0%" stop-color="#00A0FF"/><stop offset=".66%" stop-color="#00A1FF"/><stop offset="26.01%" stop-color="#00BEFF"/><stop offset="51.22%" stop-color="#00D2FF"/><stop offset="76.04%" stop-color="#00DFFF"/><stop offset="100%" stop-color="#00E3FF"/></linearGradient><linearGradient id="linearGradient-2" x1="107.586%" x2="-130.492%" y1="50.016%" y2="50.016%"><stop offset="0%" stop-color="#FFE000"/><stop offset="40.87%" stop-color="#FFBD00"/><stop offset="77.54%" stop-color="orange"/><stop offset="100%" stop-color="#FF9C00"/></linearGradient><linearGradient id="linearGradient-3" x1="86.238%" x2="-50.131%" y1="117.851%" y2="294.785%"><stop offset="0%" stop-color="#FF3A44"/><stop offset="100%" stop-color="#C31162"/></linearGradient><linearGradient id="linearGradient-4" x1="-18.801%" x2="42.094%" y1="-154.171%" y2="-75.137%"><stop offset="0%" stop-color="#32A071"/><stop offset="6.85%" stop-color="#2DA771"/><stop offset="47.62%" stop-color="#15CF74"/><stop offset="80.09%" stop-color="#06E775"/><stop offset="100%" stop-color="#00F076"/></linearGradient></defs><g id="Symbols" fill="none" fill-rule="evenodd" stroke="none" stroke-width="1"><g id="Desktop/App-Banner/Small/Light" fill-rule="nonzero" transform="translate(-30.000000, -16.000000)"><g id="minimized-app-banner-light"><g id="Google-play" transform="translate(29.666667, 16.000000)"><g id="g48" fill="url(#linearGradient-1)" transform="translate(0.448380, 0.056776)"><path id="path64" d="M0.952786732,14.8390087 C0.786685188,14.6649233 0.690558336,14.3938879 0.690558336,14.0428865 L0.690558336,1.52289316 C0.690558336,1.17189176 0.786685188,0.900856408 0.952786732,0.726771038 L0.993782007,0.688557176 L8.00114674,7.70150848 L8.00114674,7.86710188 L0.993782007,14.8800532 L0.952786732,14.8390087 Z"/></g><g id="g66" fill="url(#linearGradient-2)" transform="translate(8.223346, 5.010425)"><path id="path78" d="M2.55937742,0.409029854 L0.226180827,2.74785973 L0.226180827,2.91345313 L2.56220468,5.252283 L2.61450899,5.22185345 L5.38098323,3.64588548 C6.17049568,3.19864176 6.17049568,2.46267109 5.38098323,2.01259672 L2.61450899,0.439459411 L2.55937742,0.409029854 L2.55937742,0.409029854 Z"/></g><g id="g80" fill="url(#linearGradient-3)" transform="translate(1.155195, 0.056776)"><path id="path88" d="M9.68265983,5.39310816 L7.29433166,7.78430518 L0.245971649,0.726771038 C0.508200045,0.450782036 0.93582317,0.417521823 1.42211195,0.693510825 L9.68265983,5.39310816"/></g><g id="g90" fill="url(#linearGradient-4)" transform="translate(1.155195, 7.841081)"><path id="path104" d="M9.68265983,2.39119702 L1.42211195,7.09079435 C0.93582317,7.3639527 0.508200045,7.33069249 0.245971649,7.05470348 L7.29433166,0 L9.68265983,2.39119702 Z"/></g></g></g></g></g></svg>