<svg xmlns="http://www.w3.org/2000/svg" xmlns:xlink="http://www.w3.org/1999/xlink" width="16" height="16" viewBox="0 0 16 16"><g fill="#444"><path d="M7,1.0093689 C7,0.451909848 7.44386482,0 8,0 C8.55228475,0 9,0.443353176 9,1.0093689 L9,2.9906311 C9,3.54809015 8.55613518,4 8,4 C7.44771525,4 7,3.55664682 7,2.9906311 L7,1.0093689 Z"/><path d="M2.34314575,2.34314575 C2.73367004,1.95262146 3.36375057,1.94953701 3.76398412,2.34977056 L5.16494807,3.7507345 C5.55913114,4.14491758 5.56481983,4.77832592 5.17157288,5.17157288 C4.78104858,5.56209717 4.15096806,5.56518162 3.7507345,5.16494807 L2.34977056,3.76398412 C1.95558749,3.36980105 1.9498988,2.73639271 2.34314575,2.34314575 Z" fillOpacity=".9"/><path d="M0,8 C0,7.44771525 0.443353176,7 1.0093689,7 L2.9906311,7 C3.54809015,7 4,7.44386482 4,8 C4,8.55228475 3.55664682,9 2.9906311,9 L1.0093689,9 C0.451909848,9 0,8.55613518 0,8 Z" fillOpacity=".8"/><path d="M3.7507345,10.8350519 C4.14491758,10.4408689 4.77832592,10.4351802 5.17157288,10.8284271 C5.56209717,11.2189514 5.56518162,11.8490319 5.16494807,12.2492655 L3.76398412,13.6502294 C3.36980105,14.0444125 2.73639271,14.0501012 2.34314575,13.6568542 C1.95262146,13.26633 1.94953701,12.6362494 2.34977056,12.2360159 L3.7507345,10.8350519 Z" fillOpacity=".7"/><path d="M7,13.0093689 C7,12.4519098 7.44386482,12 8,12 C8.55228475,12 9,12.4433532 9,13.0093689 L9,14.9906311 C9,15.5480902 8.55613518,16 8,16 C7.44771525,16 7,15.5566468 7,14.9906311 L7,13.0093689 Z" fillOpacity=".6"/><path d="M10.8284271,10.8284271 C11.2189514,10.4379028 11.8490319,10.4348184 12.2492655,10.8350519 L13.6502294,12.2360159 C14.0444125,12.630199 14.0501012,13.2636073 13.6568542,13.6568542 C13.26633,14.0473785 12.6362494,14.050463 12.2360159,13.6502294 L10.8350519,12.2492655 C10.4408689,11.8550824 10.4351802,11.2216741 10.8284271,10.8284271 Z" fillOpacity=".5"/><path d="M12,8 C12,7.44771525 12.4433532,7 13.0093689,7 L14.9906311,7 C15.5480902,7 16,7.44386482 16,8 C16,8.55228475 15.5566468,9 14.9906311,9 L13.0093689,9 C12.4519098,9 12,8.55613518 12,8 Z" fillOpacity=".4"/><path d="M12.2360159,2.34977056 C12.630199,1.95558749 13.2636073,1.9498988 13.6568542,2.34314575 C14.0473785,2.73367004 14.050463,3.36375057 13.6502294,3.76398412 L12.2492655,5.16494807 C11.8550824,5.55913114 11.2216741,5.56481983 10.8284271,5.17157288 C10.4379028,4.78104858 10.4348184,4.15096806 10.8350519,3.7507345 L12.2360159,2.34977056 Z" fillOpacity=".3"/></g></svg>